<mxfile host="app.diagrams.net" modified="2024-06-02T14:10:47.214Z" agent="Mozilla/5.0 (Windows NT 10.0; Win64; x64) AppleWebKit/537.36 (KHTML, like Gecko) Chrome/125.0.0.0 Safari/537.36 Edg/125.0.0.0" etag="m1W0ePntxHMEVLmHrelO" version="24.4.13" type="github">
  <diagram id="prtHgNgQTEPvFCAcTncT" name="Page-1">
    <mxGraphModel dx="908" dy="591" grid="1" gridSize="10" guides="1" tooltips="1" connect="1" arrows="1" fold="1" page="1" pageScale="1" pageWidth="827" pageHeight="1169" math="0" shadow="0">
      <root>
        <mxCell id="0" />
        <mxCell id="1" parent="0" />
        <mxCell id="dNxyNK7c78bLwvsdeMH5-19" value="文章思路" style="swimlane;html=1;childLayout=stackLayout;resizeParent=1;resizeParentMax=0;horizontal=1;startSize=20;horizontalStack=0;swimlaneFillColor=default;direction=east;align=center;flipH=0;flipV=0;labelPosition=center;verticalLabelPosition=middle;verticalAlign=middle;fontSize=18;" parent="1" vertex="1">
          <mxGeometry x="40" y="20" width="750" height="760" as="geometry" />
        </mxCell>
        <mxCell id="dNxyNK7c78bLwvsdeMH5-20" value="研究目的与意义" style="swimlane;html=1;startSize=30;horizontal=0;fontSize=18;fillColor=#b0e3e6;strokeColor=#0e8088;" parent="dNxyNK7c78bLwvsdeMH5-19" vertex="1">
          <mxGeometry y="20" width="750" height="260" as="geometry" />
        </mxCell>
        <mxCell id="yjcvg-GpPopAoEvQ3IlU-27" value="" style="rounded=1;whiteSpace=wrap;html=1;strokeColor=#b46504;align=center;verticalAlign=middle;swimlaneFillColor=default;fontFamily=Helvetica;fontSize=18;fontStyle=1;fillColor=#fad7ac;" parent="dNxyNK7c78bLwvsdeMH5-20" vertex="1">
          <mxGeometry x="50" y="20" width="210" height="110" as="geometry" />
        </mxCell>
        <mxCell id="yjcvg-GpPopAoEvQ3IlU-25" value="&lt;span style=&quot;font-weight: normal; font-size: 18px;&quot;&gt;黄土沟头地貌&lt;/span&gt;" style="ellipse;whiteSpace=wrap;html=1;strokeColor=#0e8088;align=center;verticalAlign=middle;swimlaneFillColor=default;fontFamily=Helvetica;fontSize=18;fontStyle=1;fillColor=#b0e3e6;shadow=1;" parent="dNxyNK7c78bLwvsdeMH5-20" vertex="1">
          <mxGeometry x="95" y="57.5" width="120" height="60" as="geometry" />
        </mxCell>
        <mxCell id="yjcvg-GpPopAoEvQ3IlU-28" value="&lt;span style=&quot;font-weight: normal; font-size: 18px;&quot;&gt;黄土高原沟壑地貌&lt;/span&gt;" style="text;html=1;align=center;verticalAlign=middle;whiteSpace=wrap;rounded=0;fontFamily=Helvetica;fontSize=18;fontColor=default;fontStyle=1;" parent="dNxyNK7c78bLwvsdeMH5-20" vertex="1">
          <mxGeometry x="80" y="27.5" width="150" height="30" as="geometry" />
        </mxCell>
        <mxCell id="yjcvg-GpPopAoEvQ3IlU-24" value="" style="endArrow=classic;html=1;rounded=0;fontFamily=Helvetica;fontSize=18;fontColor=default;fontStyle=1;exitX=0.5;exitY=1;exitDx=0;exitDy=0;entryX=0.5;entryY=0;entryDx=0;entryDy=0;" parent="dNxyNK7c78bLwvsdeMH5-20" source="yjcvg-GpPopAoEvQ3IlU-25" target="yjcvg-GpPopAoEvQ3IlU-29" edge="1">
          <mxGeometry width="50" height="50" relative="1" as="geometry">
            <mxPoint x="280" y="100" as="sourcePoint" />
            <mxPoint x="320" y="85" as="targetPoint" />
          </mxGeometry>
        </mxCell>
        <mxCell id="yjcvg-GpPopAoEvQ3IlU-31" value="" style="edgeStyle=orthogonalEdgeStyle;rounded=0;orthogonalLoop=1;jettySize=auto;html=1;fontFamily=Helvetica;fontSize=18;fontColor=default;fontStyle=1;" parent="dNxyNK7c78bLwvsdeMH5-20" source="yjcvg-GpPopAoEvQ3IlU-29" target="yjcvg-GpPopAoEvQ3IlU-30" edge="1">
          <mxGeometry relative="1" as="geometry" />
        </mxCell>
        <mxCell id="yjcvg-GpPopAoEvQ3IlU-29" value="&lt;span style=&quot;font-weight: normal; font-size: 18px;&quot;&gt;特征&lt;/span&gt;" style="rhombus;whiteSpace=wrap;html=1;strokeColor=#0e8088;align=center;verticalAlign=middle;swimlaneFillColor=default;fontFamily=Helvetica;fontSize=18;fontStyle=1;fillColor=#b0e3e6;shadow=1;rounded=0;" parent="dNxyNK7c78bLwvsdeMH5-20" vertex="1">
          <mxGeometry x="130" y="182.5" width="50" height="55" as="geometry" />
        </mxCell>
        <mxCell id="yjcvg-GpPopAoEvQ3IlU-34" value="" style="edgeStyle=orthogonalEdgeStyle;rounded=0;orthogonalLoop=1;jettySize=auto;html=1;fontFamily=Helvetica;fontSize=18;fontColor=default;fontStyle=1;" parent="dNxyNK7c78bLwvsdeMH5-20" source="yjcvg-GpPopAoEvQ3IlU-30" target="yjcvg-GpPopAoEvQ3IlU-33" edge="1">
          <mxGeometry relative="1" as="geometry" />
        </mxCell>
        <mxCell id="yjcvg-GpPopAoEvQ3IlU-30" value="&lt;span style=&quot;font-weight: 400; font-size: 18px;&quot;&gt;黄土沟头概念模型&lt;/span&gt;" style="whiteSpace=wrap;html=1;swimlaneFillColor=default;fontStyle=1;rounded=1;fontSize=18;fillColor=#b0e3e6;strokeColor=#0e8088;shadow=1;" parent="dNxyNK7c78bLwvsdeMH5-20" vertex="1">
          <mxGeometry x="260" y="175" width="160" height="70" as="geometry" />
        </mxCell>
        <mxCell id="yjcvg-GpPopAoEvQ3IlU-33" value="&lt;span style=&quot;font-weight: normal; font-size: 18px;&quot;&gt;黄土高原沟壑发育阶段与演化过程&lt;/span&gt;" style="whiteSpace=wrap;html=1;fontSize=18;swimlaneFillColor=default;fontStyle=1;rounded=1;shadow=1;fillColor=#b0e3e6;strokeColor=#0e8088;" parent="dNxyNK7c78bLwvsdeMH5-20" vertex="1">
          <mxGeometry x="460" y="80" width="280" height="120" as="geometry" />
        </mxCell>
        <mxCell id="yjcvg-GpPopAoEvQ3IlU-12" value="数据与方法" style="swimlane;html=1;startSize=30;horizontal=0;fontSize=18;fillColor=#b1ddf0;strokeColor=#10739e;" parent="dNxyNK7c78bLwvsdeMH5-19" vertex="1">
          <mxGeometry y="280" width="750" height="140" as="geometry" />
        </mxCell>
        <mxCell id="yjcvg-GpPopAoEvQ3IlU-37" value="" style="rounded=1;whiteSpace=wrap;html=1;strokeColor=default;align=center;verticalAlign=middle;swimlaneFillColor=default;fontFamily=Helvetica;fontSize=18;fontColor=default;fontStyle=1;fillColor=default;dashed=1;dashPattern=8 8;" parent="yjcvg-GpPopAoEvQ3IlU-12" vertex="1">
          <mxGeometry x="50" y="20" width="210" height="100" as="geometry" />
        </mxCell>
        <mxCell id="yjcvg-GpPopAoEvQ3IlU-40" value="&lt;font style=&quot;font-size: 18px; font-weight: normal;&quot;&gt;DEM&lt;/font&gt;" style="ellipse;whiteSpace=wrap;html=1;strokeColor=#10739e;align=center;verticalAlign=middle;swimlaneFillColor=default;fontFamily=Helvetica;fontSize=18;fontStyle=1;fillColor=#b1ddf0;shadow=1;" parent="yjcvg-GpPopAoEvQ3IlU-12" vertex="1">
          <mxGeometry x="70" y="30" width="70" height="40" as="geometry" />
        </mxCell>
        <mxCell id="yjcvg-GpPopAoEvQ3IlU-41" value="&lt;font style=&quot;font-size: 18px; font-weight: normal;&quot;&gt;DOM&lt;/font&gt;" style="ellipse;whiteSpace=wrap;html=1;strokeColor=#10739e;align=center;verticalAlign=middle;swimlaneFillColor=default;fontFamily=Helvetica;fontSize=18;fontStyle=1;fillColor=#b1ddf0;shadow=1;" parent="yjcvg-GpPopAoEvQ3IlU-12" vertex="1">
          <mxGeometry x="170" y="30" width="70" height="40" as="geometry" />
        </mxCell>
        <mxCell id="yjcvg-GpPopAoEvQ3IlU-42" value="&lt;font style=&quot;font-size: 18px; font-weight: normal;&quot;&gt;DLG&lt;/font&gt;" style="ellipse;whiteSpace=wrap;html=1;strokeColor=#10739e;align=center;verticalAlign=middle;swimlaneFillColor=default;fontFamily=Helvetica;fontSize=18;fontStyle=1;fillColor=#b1ddf0;shadow=1;" parent="yjcvg-GpPopAoEvQ3IlU-12" vertex="1">
          <mxGeometry x="120" y="70" width="70" height="40" as="geometry" />
        </mxCell>
        <mxCell id="dNxyNK7c78bLwvsdeMH5-21" value="结果与讨论" style="swimlane;html=1;startSize=30;horizontal=0;direction=east;fontSize=18;fillColor=#d0cee2;strokeColor=#56517e;" parent="dNxyNK7c78bLwvsdeMH5-19" vertex="1">
          <mxGeometry y="420" width="750" height="220" as="geometry">
            <mxRectangle x="20" y="240" width="430" height="30" as="alternateBounds" />
          </mxGeometry>
        </mxCell>
        <mxCell id="yjcvg-GpPopAoEvQ3IlU-52" value="&lt;span style=&quot;font-weight: normal;&quot;&gt;沟头分类&lt;/span&gt;" style="rounded=1;whiteSpace=wrap;html=1;strokeColor=#56517e;align=center;verticalAlign=middle;swimlaneFillColor=default;fontFamily=Helvetica;fontSize=18;fontStyle=1;fillColor=#d0cee2;shadow=1;" parent="dNxyNK7c78bLwvsdeMH5-21" vertex="1">
          <mxGeometry x="50" y="140" width="130" height="60" as="geometry" />
        </mxCell>
        <mxCell id="yjcvg-GpPopAoEvQ3IlU-43" value="&lt;span style=&quot;font-weight: normal;&quot;&gt;地貌特征&lt;/span&gt;" style="rounded=1;whiteSpace=wrap;html=1;strokeColor=#56517e;align=center;verticalAlign=middle;swimlaneFillColor=default;fontFamily=Helvetica;fontSize=18;fontStyle=1;fillColor=#d0cee2;shadow=1;" parent="dNxyNK7c78bLwvsdeMH5-21" vertex="1">
          <mxGeometry x="120" y="40" width="130" height="60" as="geometry" />
        </mxCell>
        <mxCell id="dNxyNK7c78bLwvsdeMH5-22" value="结论" style="swimlane;html=1;startSize=30;horizontal=0;fontSize=18;fillColor=#bac8d3;strokeColor=#23445d;" parent="dNxyNK7c78bLwvsdeMH5-19" vertex="1">
          <mxGeometry y="640" width="750" height="120" as="geometry" />
        </mxCell>
        <mxCell id="yjcvg-GpPopAoEvQ3IlU-36" style="edgeStyle=orthogonalEdgeStyle;rounded=0;orthogonalLoop=1;jettySize=auto;html=1;exitX=0.5;exitY=1;exitDx=0;exitDy=0;fontFamily=Helvetica;fontSize=18;fontColor=default;fontStyle=1;entryX=0.5;entryY=0;entryDx=0;entryDy=0;" parent="dNxyNK7c78bLwvsdeMH5-19" source="yjcvg-GpPopAoEvQ3IlU-29" target="yjcvg-GpPopAoEvQ3IlU-37" edge="1">
          <mxGeometry relative="1" as="geometry">
            <mxPoint x="155" y="303" as="targetPoint" />
          </mxGeometry>
        </mxCell>
        <mxCell id="yjcvg-GpPopAoEvQ3IlU-53" style="edgeStyle=orthogonalEdgeStyle;rounded=0;orthogonalLoop=1;jettySize=auto;html=1;exitX=0.25;exitY=1;exitDx=0;exitDy=0;entryX=0.397;entryY=0.041;entryDx=0;entryDy=0;entryPerimeter=0;fontFamily=Helvetica;fontSize=12;fontColor=default;fontStyle=1;" parent="dNxyNK7c78bLwvsdeMH5-19" source="yjcvg-GpPopAoEvQ3IlU-37" target="yjcvg-GpPopAoEvQ3IlU-52" edge="1">
          <mxGeometry relative="1" as="geometry" />
        </mxCell>
        <mxCell id="yjcvg-GpPopAoEvQ3IlU-51" style="edgeStyle=orthogonalEdgeStyle;rounded=0;orthogonalLoop=1;jettySize=auto;html=1;exitX=0.75;exitY=1;exitDx=0;exitDy=0;entryX=0.669;entryY=0.018;entryDx=0;entryDy=0;entryPerimeter=0;fontFamily=Helvetica;fontSize=12;fontColor=default;fontStyle=1;" parent="dNxyNK7c78bLwvsdeMH5-19" source="yjcvg-GpPopAoEvQ3IlU-37" target="yjcvg-GpPopAoEvQ3IlU-43" edge="1">
          <mxGeometry relative="1" as="geometry" />
        </mxCell>
      </root>
    </mxGraphModel>
  </diagram>
</mxfile>
